<svg width="97" height="26" viewBox="0 0 97 26" fill="none" xmlns="http://www.w3.org/2000/svg">
<path d="M33.7718 1.14954H96.4969V24.8505H33.7718V1.14954Z" fill="#2CD651"/>
<path d="M5.496 20.4969C5.496 20.8809 5.584 21.1849 5.76 21.4089C5.936 21.6329 6.144 21.8009 6.384 21.9129C6.64 22.0089 6.904 22.0729 7.176 22.1049C7.448 22.1369 7.68 22.1529 7.872 22.1529V23.1609C7.68 23.1609 7.424 23.1529 7.104 23.1369C6.8 23.1049 6.48 23.0729 6.144 23.0409C5.808 23.0089 5.48 22.9849 5.16 22.9689C4.856 22.9369 4.608 22.9209 4.416 22.9209C4.224 22.9209 3.968 22.9369 3.648 22.9689C3.344 22.9849 3.024 23.0089 2.688 23.0409C2.352 23.0729 2.024 23.1049 1.704 23.1369C1.4 23.1529 1.152 23.1609 0.96 23.1609V22.1529C1.168 22.1529 1.408 22.1369 1.68 22.1049C1.968 22.0729 2.232 22.0089 2.472 21.9129C2.712 21.8009 2.912 21.6329 3.072 21.4089C3.248 21.1849 3.336 20.8809 3.336 20.4969V6.02489C3.336 5.52889 3.144 5.15289 2.76 4.89689C2.392 4.62489 1.872 4.48889 1.2 4.48889C1.2 4.21689 1.296 3.98489 1.488 3.79289C1.68 3.58489 2.04 3.48089 2.568 3.48089C2.936 3.48089 3.28 3.55289 3.6 3.69689C3.936 3.84089 4.208 4.01689 4.416 4.22489C4.624 4.01689 4.888 3.84089 5.208 3.69689C5.544 3.55289 5.896 3.48089 6.264 3.48089C6.792 3.48089 7.152 3.58489 7.344 3.79289C7.536 3.98489 7.632 4.21689 7.632 4.48889C6.976 4.48889 6.456 4.62489 6.072 4.89689C5.688 5.15289 5.496 5.52889 5.496 6.02489V20.4969ZM15.6039 20.7849C15.6039 21.1049 15.6519 21.3689 15.7479 21.5769C15.8599 21.7849 15.9879 21.9529 16.1319 22.0809C16.2919 22.2089 16.4679 22.3049 16.6599 22.3689C16.8679 22.4169 17.0679 22.4409 17.2599 22.4409V23.1609C17.0679 23.1609 16.8519 23.1529 16.6119 23.1369C16.3879 23.1049 16.1479 23.0729 15.8919 23.0409C15.6359 23.0089 15.3879 22.9849 15.1479 22.9689C14.9239 22.9369 14.7159 22.9209 14.5239 22.9209C14.3319 22.9209 14.1159 22.9369 13.8759 22.9689C13.6519 22.9849 13.4119 23.0089 13.1559 23.0409C12.8999 23.0729 12.6519 23.1049 12.4119 23.1369C12.1879 23.1529 11.9799 23.1609 11.7879 23.1609V22.4409C12.2199 22.4409 12.6039 22.3209 12.9399 22.0809C13.2759 21.8409 13.4439 21.4089 13.4439 20.7849V8.47289C13.4439 7.88089 13.4279 7.39289 13.3959 7.00889C13.3799 6.60889 13.3159 6.30489 13.2039 6.09689C13.0919 5.87289 12.9319 5.72089 12.7239 5.64089C12.5159 5.54489 12.2279 5.49689 11.8599 5.49689V4.77689C12.2599 4.77689 12.6039 4.75289 12.8919 4.70489C13.1959 4.65689 13.4679 4.58489 13.7079 4.48889C13.9479 4.39289 14.1639 4.28089 14.3559 4.15289C14.5639 4.02489 14.7799 3.88889 15.0039 3.74489H15.6039V17.2569L17.8119 14.5449C18.1639 14.1129 18.4519 13.7689 18.6759 13.5129C18.8999 13.2409 19.0839 13.0409 19.2279 12.9129C19.3879 12.7849 19.5239 12.7049 19.6359 12.6729C19.7639 12.6249 19.9079 12.6009 20.0679 12.6009C20.1479 12.4889 20.2919 12.3929 20.4999 12.3129C20.7079 12.2169 20.9239 12.1689 21.1479 12.1689C21.4679 12.1689 21.7319 12.2809 21.9399 12.5049C22.1479 12.7129 22.2759 13.0009 22.3239 13.3689L22.2519 13.4409C22.1079 13.2969 21.8999 13.2249 21.6279 13.2249C21.4039 13.2249 21.1879 13.2889 20.9799 13.4169C20.7879 13.5449 20.5799 13.7129 20.3559 13.9209C20.1479 14.1129 19.9319 14.3449 19.7079 14.6169C19.4999 14.8729 19.2759 15.1289 19.0359 15.3849L18.0999 16.4409L21.4599 20.7129C21.8759 21.3049 22.2679 21.7449 22.6359 22.0329C23.0199 22.3049 23.3479 22.4409 23.6199 22.4409V23.1609C23.4919 23.1609 23.2999 23.1529 23.0439 23.1369C22.8039 23.1209 22.5479 23.1049 22.2759 23.0889C22.0039 23.0569 21.7399 23.0329 21.4839 23.0169C21.2439 22.9849 21.0599 22.9689 20.9319 22.9689C20.8039 22.9689 20.6119 22.9849 20.3559 23.0169C20.1159 23.0329 19.8519 23.0569 19.5639 23.0889C19.2919 23.1049 19.0279 23.1209 18.7719 23.1369C18.5319 23.1529 18.3479 23.1609 18.2199 23.1609V22.4409C18.3159 22.4409 18.4199 22.4329 18.5319 22.4169C18.6599 22.4009 18.7719 22.3689 18.8679 22.3209C18.9799 22.2729 19.0759 22.2009 19.1559 22.1049C19.2359 22.0089 19.2759 21.8889 19.2759 21.7449C19.2759 21.5529 19.2039 21.3529 19.0599 21.1449C18.9319 20.9369 18.8439 20.7929 18.7959 20.7129L16.7559 17.9289L15.6039 19.2249V20.7849ZM27.8595 8.37689C27.8595 7.89689 28.0275 7.49689 28.3635 7.17689C28.6995 6.84089 29.0995 6.67289 29.5635 6.67289C30.0275 6.67289 30.4195 6.84089 30.7395 7.17689C31.0755 7.49689 31.2435 7.89689 31.2435 8.37689C31.2435 8.85689 31.0755 9.26489 30.7395 9.60089C30.4195 9.92089 30.0275 10.0809 29.5635 10.0809C29.0995 10.0809 28.6995 9.92089 28.3635 9.60089C28.0275 9.26489 27.8595 8.85689 27.8595 8.37689ZM30.5715 20.7849C30.5715 21.1049 30.6195 21.3689 30.7155 21.5769C30.8275 21.7849 30.9555 21.9529 31.0995 22.0809C31.2595 22.2089 31.4355 22.3049 31.6275 22.3689C31.8355 22.4169 32.0355 22.4409 32.2275 22.4409V23.1609C32.0355 23.1609 31.8195 23.1529 31.5795 23.1369C31.3555 23.1049 31.1155 23.0729 30.8595 23.0409C30.6035 23.0089 30.3555 22.9849 30.1155 22.9689C29.8915 22.9369 29.6835 22.9209 29.4915 22.9209C29.2995 22.9209 29.0835 22.9369 28.8435 22.9689C28.6195 22.9849 28.3795 23.0089 28.1235 23.0409C27.8675 23.0729 27.6195 23.1049 27.3795 23.1369C27.1555 23.1529 26.9475 23.1609 26.7555 23.1609V22.4409C27.1875 22.4409 27.5715 22.3209 27.9075 22.0809C28.2435 21.8409 28.4115 21.4089 28.4115 20.7849V16.6569C28.4115 16.0649 28.3955 15.5769 28.3635 15.1929C28.3475 14.7929 28.2835 14.4889 28.1715 14.2809C28.0595 14.0569 27.8995 13.9049 27.6915 13.8249C27.4835 13.7289 27.1955 13.6809 26.8275 13.6809V12.9609C27.2275 12.9609 27.5635 12.9369 27.8355 12.8889C28.1235 12.8409 28.3795 12.7689 28.6035 12.6729C28.8275 12.5769 29.0355 12.4649 29.2275 12.3369C29.4195 12.2089 29.6275 12.0729 29.8515 11.9289H30.5715V20.7849Z" fill="#0E2948"/>
<path d="M45.2644 12.7209C45.9524 12.7209 46.5684 12.6569 47.1124 12.5289C47.6724 12.3849 48.1524 12.1929 48.5524 11.9529C48.6324 12.0329 48.7044 12.1449 48.7684 12.2889C48.8484 12.4329 48.8884 12.5929 48.8884 12.7689C48.8884 13.1849 48.6564 13.5369 48.1924 13.8249C47.7284 14.0969 47.0004 14.2329 46.0084 14.2329C45.4964 14.2329 44.9924 14.2089 44.4964 14.1609C44.0004 14.0969 43.5044 14.0169 43.0084 13.9209V20.4969C43.0084 20.8809 43.0804 21.1849 43.2244 21.4089C43.3844 21.6329 43.5684 21.8009 43.7764 21.9129C44.0004 22.0089 44.2324 22.0729 44.4724 22.1049C44.7284 22.1369 44.9524 22.1529 45.1444 22.1529V23.1609C44.9524 23.1609 44.7124 23.1529 44.4244 23.1369C44.1364 23.1049 43.8404 23.0729 43.5364 23.0409C43.2324 23.0089 42.9364 22.9849 42.6484 22.9689C42.3604 22.9369 42.1204 22.9209 41.9284 22.9209C41.7364 22.9209 41.4964 22.9369 41.2084 22.9689C40.9204 22.9849 40.6244 23.0089 40.3204 23.0409C40.0164 23.0729 39.7204 23.1049 39.4324 23.1369C39.1444 23.1529 38.9044 23.1609 38.7124 23.1609V22.1529C38.9204 22.1529 39.1524 22.1369 39.4084 22.1049C39.6644 22.0729 39.8964 22.0089 40.1044 21.9129C40.3124 21.8009 40.4884 21.6329 40.6324 21.4089C40.7764 21.1849 40.8484 20.8809 40.8484 20.4969V11.4729C40.8484 10.8809 40.8324 10.3929 40.8004 10.0089C40.7844 9.60889 40.7204 9.30489 40.6084 9.09689C40.4964 8.87289 40.3364 8.72089 40.1284 8.64089C39.9204 8.54489 39.6324 8.49689 39.2644 8.49689V7.65689C39.6644 7.65689 40.0084 7.63289 40.2964 7.58489C40.6004 7.53689 40.8724 7.46489 41.1124 7.36889C41.3524 7.27289 41.5684 7.16089 41.7604 7.03289C41.9684 6.90489 42.1844 6.76889 42.4084 6.62489H43.0084V12.6489C43.3764 12.6809 43.7524 12.7049 44.1364 12.7209C44.5204 12.7209 44.8964 12.7209 45.2644 12.7209ZM40.7524 4.87289C40.3044 4.87289 39.8724 4.94489 39.4564 5.08889C39.0404 5.23289 38.6724 5.46489 38.3524 5.78489C38.0324 6.08889 37.7764 6.50489 37.5844 7.03289C37.3924 7.54489 37.2964 8.16889 37.2964 8.90489C37.2964 9.30489 37.3204 9.66489 37.3684 9.98489C37.4164 10.2889 37.4564 10.6169 37.4884 10.9689C36.7524 10.9689 36.2004 10.8009 35.8324 10.4649C35.4644 10.1289 35.2804 9.70489 35.2804 9.19289C35.2804 8.82489 35.3604 8.53689 35.5204 8.32889C35.6964 8.10489 35.9204 7.92889 36.1924 7.80089C36.0164 7.70489 35.8964 7.50489 35.8324 7.20089C35.7684 6.89689 35.7364 6.64089 35.7364 6.43289C35.7364 5.98489 35.8484 5.57689 36.0724 5.20889C36.2964 4.84089 36.6004 4.52889 36.9844 4.27289C37.3844 4.01689 37.8484 3.82489 38.3764 3.69689C38.9044 3.55289 39.4804 3.48089 40.1044 3.48089C40.6804 3.48089 41.2484 3.53689 41.8084 3.64889C42.3684 3.74489 42.9124 3.86489 43.4404 4.00889C43.9684 4.13689 44.4724 4.25689 44.9524 4.36889C45.4484 4.46489 45.9284 4.51289 46.3924 4.51289C46.9524 4.51289 47.4884 4.40889 48.0004 4.20089C48.5284 3.97689 49.0644 3.56889 49.6084 2.97689C49.8004 3.02489 50.0004 3.16889 50.2084 3.40889C50.4324 3.64889 50.5444 3.95289 50.5444 4.32089C50.5444 4.64089 50.4244 4.93689 50.1844 5.20889C49.9444 5.46489 49.5204 5.59289 48.9124 5.59289C48.9124 5.70489 48.8884 5.84089 48.8404 6.00089C48.7924 6.14489 48.7044 6.28889 48.5764 6.43289C48.4644 6.56089 48.3044 6.67289 48.0964 6.76889C47.9044 6.86489 47.6564 6.91289 47.3524 6.91289C46.8884 6.91289 46.3924 6.80889 45.8644 6.60089C45.3524 6.37689 44.8164 6.14489 44.2564 5.90489C43.7124 5.64889 43.1444 5.41689 42.5524 5.20889C41.9604 4.98489 41.3604 4.87289 40.7524 4.87289ZM54.6907 8.37689C54.6907 7.89689 54.8587 7.49689 55.1947 7.17689C55.5307 6.84089 55.9307 6.67289 56.3947 6.67289C56.8587 6.67289 57.2507 6.84089 57.5707 7.17689C57.9067 7.49689 58.0747 7.89689 58.0747 8.37689C58.0747 8.85689 57.9067 9.26489 57.5707 9.60089C57.2507 9.92089 56.8587 10.0809 56.3947 10.0809C55.9307 10.0809 55.5307 9.92089 55.1947 9.60089C54.8587 9.26489 54.6907 8.85689 54.6907 8.37689ZM57.4027 20.7849C57.4027 21.1049 57.4507 21.3689 57.5467 21.5769C57.6587 21.7849 57.7867 21.9529 57.9307 22.0809C58.0907 22.2089 58.2667 22.3049 58.4587 22.3689C58.6667 22.4169 58.8667 22.4409 59.0587 22.4409V23.1609C58.8667 23.1609 58.6507 23.1529 58.4107 23.1369C58.1867 23.1049 57.9467 23.0729 57.6907 23.0409C57.4347 23.0089 57.1867 22.9849 56.9467 22.9689C56.7227 22.9369 56.5147 22.9209 56.3227 22.9209C56.1307 22.9209 55.9147 22.9369 55.6747 22.9689C55.4507 22.9849 55.2107 23.0089 54.9547 23.0409C54.6987 23.0729 54.4507 23.1049 54.2107 23.1369C53.9867 23.1529 53.7787 23.1609 53.5867 23.1609V22.4409C54.0187 22.4409 54.4027 22.3209 54.7387 22.0809C55.0747 21.8409 55.2427 21.4089 55.2427 20.7849V16.6569C55.2427 16.0649 55.2267 15.5769 55.1947 15.1929C55.1787 14.7929 55.1147 14.4889 55.0027 14.2809C54.8907 14.0569 54.7307 13.9049 54.5227 13.8249C54.3147 13.7289 54.0267 13.6809 53.6587 13.6809V12.9609C54.0587 12.9609 54.3947 12.9369 54.6667 12.8889C54.9547 12.8409 55.2107 12.7689 55.4347 12.6729C55.6587 12.5769 55.8667 12.4649 56.0587 12.3369C56.2507 12.2089 56.4587 12.0729 56.6827 11.9289H57.4027V20.7849ZM66.4556 20.7849C66.4556 21.1049 66.5036 21.3689 66.5996 21.5769C66.7116 21.7849 66.8396 21.9529 66.9836 22.0809C67.1436 22.2089 67.3196 22.3049 67.5116 22.3689C67.7196 22.4169 67.9196 22.4409 68.1116 22.4409V23.1609C67.9196 23.1609 67.7036 23.1529 67.4636 23.1369C67.2396 23.1049 66.9996 23.0729 66.7436 23.0409C66.4876 23.0089 66.2396 22.9849 65.9996 22.9689C65.7756 22.9369 65.5676 22.9209 65.3756 22.9209C65.1836 22.9209 64.9676 22.9369 64.7276 22.9689C64.5036 22.9849 64.2636 23.0089 64.0076 23.0409C63.7516 23.0729 63.5036 23.1049 63.2636 23.1369C63.0396 23.1529 62.8316 23.1609 62.6396 23.1609V22.4409C63.0716 22.4409 63.4556 22.3209 63.7916 22.0809C64.1276 21.8409 64.2956 21.4089 64.2956 20.7849V8.35289C64.2956 7.76089 64.2796 7.27289 64.2476 6.88889C64.2316 6.48889 64.1676 6.18489 64.0556 5.97689C63.9436 5.75289 63.7836 5.60089 63.5756 5.52089C63.3676 5.42489 63.0796 5.37689 62.7116 5.37689V4.77689C63.1116 4.77689 63.4556 4.75289 63.7436 4.70489C64.0476 4.65689 64.3196 4.58489 64.5596 4.48889C64.7996 4.39289 65.0156 4.28089 65.2076 4.15289C65.4156 4.02489 65.6316 3.88889 65.8556 3.74489H66.4556V20.7849ZM77.6702 22.4169C77.9102 22.4169 78.1502 22.3929 78.3902 22.3449C78.6302 22.2809 78.8542 22.1769 79.0622 22.0329C79.2862 21.8729 79.4862 21.6569 79.6622 21.3849C79.8542 21.0969 80.0222 20.7209 80.1662 20.2569C80.5342 20.2569 80.8382 20.3449 81.0782 20.5209C81.3182 20.6969 81.4382 20.9689 81.4382 21.3369C81.4382 21.6729 81.3262 21.9769 81.1022 22.2489C80.8942 22.5209 80.6062 22.7529 80.2382 22.9449C79.8862 23.1209 79.4702 23.2569 78.9902 23.3529C78.5262 23.4489 78.0382 23.4969 77.5262 23.4969C76.6462 23.4969 75.8702 23.3609 75.1982 23.0889C74.5262 22.8009 73.9662 22.4089 73.5182 21.9129C73.0702 21.4009 72.7262 20.7849 72.4862 20.0649C72.2622 19.3449 72.1502 18.5529 72.1502 17.6889C72.1502 15.8969 72.6222 14.4889 73.5662 13.4649C74.5102 12.4409 75.8542 11.9289 77.5982 11.9289C77.8062 11.9289 78.0142 11.9369 78.2222 11.9529C78.4302 11.9689 78.6222 12.0089 78.7982 12.0729C78.9742 12.1209 79.1182 12.2009 79.2302 12.3129C79.3422 12.4089 79.3982 12.5369 79.3982 12.6969C79.6382 12.6969 79.8782 12.7449 80.1182 12.8409C80.3742 12.9369 80.6062 13.0809 80.8142 13.2729C81.0382 13.4649 81.2142 13.7129 81.3422 14.0169C81.4862 14.3049 81.5582 14.6569 81.5582 15.0729C81.5582 15.6649 81.4142 16.1529 81.1262 16.5369C80.8382 16.9209 80.4702 17.2329 80.0222 17.4729C79.5902 17.6969 79.1102 17.8569 78.5822 17.9529C78.0702 18.0329 77.5822 18.0729 77.1182 18.0729C76.5902 18.0729 76.0942 18.0329 75.6302 17.9529C75.1822 17.8729 74.7982 17.7769 74.4782 17.6649V17.7609C74.4782 18.4329 74.5342 19.0569 74.6462 19.6329C74.7582 20.2089 74.9342 20.7049 75.1742 21.1209C75.4302 21.5209 75.7582 21.8409 76.1582 22.0809C76.5742 22.3049 77.0782 22.4169 77.6702 22.4169ZM77.4062 13.0569C76.5422 13.0569 75.8782 13.3689 75.4142 13.9929C74.9502 14.6169 74.6542 15.4809 74.5262 16.5849C74.7982 16.7609 75.1662 16.8809 75.6302 16.9449C76.1102 16.9929 76.5662 17.0169 76.9982 17.0169C77.8622 17.0169 78.4622 16.8809 78.7982 16.6089C79.1502 16.3369 79.3262 15.8649 79.3262 15.1929C79.3262 14.3929 79.1422 13.8409 78.7742 13.5369C78.4062 13.2169 77.9502 13.0569 77.4062 13.0569ZM94.0283 14.1609C94.0283 14.7689 93.8203 15.2169 93.4043 15.5049C93.0043 15.7769 92.5483 15.9129 92.0363 15.9129L91.9643 15.7929C92.0763 15.7449 92.1963 15.6249 92.3243 15.4329C92.4523 15.2409 92.5163 14.9849 92.5163 14.6649C92.5163 14.1209 92.3163 13.7209 91.9163 13.4649C91.5163 13.1929 90.9883 13.0569 90.3323 13.0569C90.1723 13.0569 89.9803 13.0729 89.7563 13.1049C89.5323 13.1369 89.3163 13.2089 89.1083 13.3209C88.9003 13.4329 88.7163 13.5929 88.5563 13.8009C88.4123 14.0089 88.3403 14.2809 88.3403 14.6169C88.3403 15.0649 88.4923 15.4169 88.7963 15.6729C89.1003 15.9289 89.4763 16.1449 89.9243 16.3209C90.3883 16.4969 90.8843 16.6649 91.4123 16.8249C91.9403 16.9849 92.4283 17.1929 92.8763 17.4489C93.3403 17.7049 93.7243 18.0409 94.0283 18.4569C94.3323 18.8729 94.4843 19.4249 94.4843 20.1129C94.4843 21.2329 94.0603 22.0809 93.2123 22.6569C92.3803 23.2169 91.2763 23.4969 89.9003 23.4969C89.8043 23.4969 89.6523 23.4889 89.4443 23.4729C89.2363 23.4729 89.0283 23.4569 88.8203 23.4249C88.6283 23.3929 88.4523 23.3449 88.2923 23.2809C88.1323 23.2169 88.0523 23.1209 88.0523 22.9929C87.3803 22.9929 86.8763 22.8169 86.5403 22.4649C86.2043 22.1129 86.0363 21.6649 86.0363 21.1209C86.0363 20.5289 86.2043 20.1049 86.5403 19.8489C86.8923 19.5929 87.2923 19.4489 87.7403 19.4169L87.7883 19.4889C87.6603 19.6329 87.5803 19.8249 87.5483 20.0649C87.5163 20.2889 87.5003 20.4649 87.5003 20.5929C87.5003 20.9449 87.5803 21.2409 87.7403 21.4809C87.9003 21.7049 88.1003 21.8889 88.3403 22.0329C88.5803 22.1609 88.8443 22.2569 89.1323 22.3209C89.4363 22.3689 89.7323 22.3929 90.0203 22.3929C90.0843 22.3929 90.2283 22.3849 90.4523 22.3689C90.6923 22.3529 90.9323 22.2969 91.1723 22.2009C91.4123 22.0889 91.6283 21.9209 91.8203 21.6969C92.0123 21.4569 92.1083 21.1289 92.1083 20.7129C92.1083 20.2169 91.9643 19.8249 91.6763 19.5369C91.3883 19.2489 91.0203 19.0089 90.5723 18.8169C90.1403 18.6249 89.6683 18.4489 89.1563 18.2889C88.6443 18.1129 88.1643 17.9049 87.7163 17.6649C87.2843 17.4249 86.9243 17.1129 86.6363 16.7289C86.3483 16.3289 86.2043 15.8009 86.2043 15.1449C86.2043 14.4889 86.3483 13.9529 86.6363 13.5369C86.9243 13.1209 87.2843 12.7929 87.7163 12.5529C88.1483 12.3129 88.6043 12.1529 89.0843 12.0729C89.5803 11.9769 90.0283 11.9289 90.4283 11.9289C90.9403 11.9289 91.3323 11.9769 91.6043 12.0729C91.8763 12.1689 92.0123 12.3049 92.0123 12.4809C92.2523 12.4809 92.4923 12.5129 92.7323 12.5769C92.9723 12.6249 93.1883 12.7129 93.3803 12.8409C93.5723 12.9689 93.7243 13.1449 93.8363 13.3689C93.9643 13.5769 94.0283 13.8409 94.0283 14.1609Z" fill="white"/>
</svg>
