<svg width="120" height="42" viewBox="0 0 120 42" fill="none" xmlns="http://www.w3.org/2000/svg">
<path d="M12.6523 23.7695H8V6.89453H12.6523V23.7695Z" fill="#2CD651"/>
<path d="M22.4469 23.7695H18.4859V5.25391H22.4469V17.4062C23.0953 16.9375 23.732 16.4219 24.357 15.8594C24.9898 15.2969 25.5914 14.707 26.1617 14.0898C26.732 13.4648 27.2594 12.8281 27.7437 12.1797C28.2359 11.5312 28.6656 10.8828 29.0328 10.2344H31.7281C31.1812 11.1562 30.5328 12.0781 29.7828 13C29.0328 13.9141 28.2164 14.7891 27.3336 15.625L31.775 23.7695H27.4039L24.2516 18.1211C23.6656 18.5195 23.0641 18.8867 22.4469 19.2227V23.7695Z" fill="#0E2948"/>
<path d="M40.3977 6.96484C40.3977 7.26172 40.3391 7.54297 40.2219 7.80859C40.1125 8.07422 39.9602 8.30469 39.7648 8.5C39.5695 8.69531 39.3391 8.85156 39.0734 8.96875C38.8078 9.07812 38.5266 9.13281 38.2297 9.13281C37.9328 9.13281 37.6516 9.07812 37.3859 8.96875C37.1281 8.85156 36.9016 8.69531 36.7062 8.5C36.5109 8.30469 36.3547 8.07422 36.2375 7.80859C36.1281 7.54297 36.0734 7.26172 36.0734 6.96484C36.0734 6.66797 36.1281 6.39062 36.2375 6.13281C36.3547 5.86719 36.5109 5.63672 36.7062 5.44141C36.9016 5.24609 37.1281 5.09375 37.3859 4.98438C37.6516 4.86719 37.9328 4.80859 38.2297 4.80859C38.5266 4.80859 38.8078 4.86719 39.0734 4.98438C39.3391 5.09375 39.5695 5.24609 39.7648 5.44141C39.9602 5.63672 40.1125 5.86719 40.2219 6.13281C40.3391 6.39062 40.3977 6.66797 40.3977 6.96484ZM40.2219 23.7695H36.2492V10.2461H40.2219V23.7695Z" fill="#0E2948"/>
<path d="M50.8602 23.7695H46.2078V6.89453H58.325V9.05078H50.8602V14.2656H56.6258V16.4102H50.8602V23.7695Z" fill="#2CD651"/>
<path d="M66.8773 6.96484C66.8773 7.26172 66.8187 7.54297 66.7016 7.80859C66.5922 8.07422 66.4398 8.30469 66.2445 8.5C66.0492 8.69531 65.8187 8.85156 65.5531 8.96875C65.2875 9.07812 65.0062 9.13281 64.7094 9.13281C64.4125 9.13281 64.1312 9.07812 63.8656 8.96875C63.6078 8.85156 63.3812 8.69531 63.1859 8.5C62.9906 8.30469 62.8344 8.07422 62.7172 7.80859C62.6078 7.54297 62.5531 7.26172 62.5531 6.96484C62.5531 6.66797 62.6078 6.39062 62.7172 6.13281C62.8344 5.86719 62.9906 5.63672 63.1859 5.44141C63.3812 5.24609 63.6078 5.09375 63.8656 4.98438C64.1312 4.86719 64.4125 4.80859 64.7094 4.80859C65.0062 4.80859 65.2875 4.86719 65.5531 4.98438C65.8187 5.09375 66.0492 5.24609 66.2445 5.44141C66.4398 5.63672 66.5922 5.86719 66.7016 6.13281C66.8187 6.39062 66.8773 6.66797 66.8773 6.96484ZM66.7016 23.7695H62.7289V10.2461H66.7016V23.7695Z" fill="#0E2948"/>
<path d="M76.3906 23.7695H72.4297V4H73.9531L76.3906 8.11328V23.7695Z" fill="#0E2948"/>
<path d="M85.3531 17.3477C85.8375 17.457 86.3219 17.543 86.8063 17.6055C87.2906 17.668 87.7789 17.6992 88.2711 17.6992C88.7867 17.6992 89.2633 17.6523 89.7008 17.5586C90.1461 17.457 90.5289 17.293 90.8492 17.0664C91.1773 16.832 91.4352 16.5234 91.6227 16.1406C91.8102 15.7578 91.9039 15.2812 91.9039 14.7109C91.9039 14.25 91.8414 13.8281 91.7164 13.4453C91.5914 13.0625 91.4039 12.7344 91.1539 12.4609C90.9117 12.1875 90.6109 11.9766 90.2516 11.8281C89.8922 11.6719 89.4742 11.5938 88.9977 11.5938C88.5523 11.5938 88.15 11.6758 87.7906 11.8398C87.4391 12.0039 87.1266 12.2266 86.8531 12.5078C86.5875 12.7812 86.357 13.1016 86.1617 13.4688C85.9742 13.8359 85.818 14.2188 85.693 14.6172C85.568 15.0156 85.4781 15.418 85.4234 15.8242C85.3688 16.2305 85.3414 16.6133 85.3414 16.9727C85.3414 17.0352 85.3414 17.0977 85.3414 17.1602C85.3414 17.2227 85.3453 17.2852 85.3531 17.3477ZM95.1148 14.6758C95.1148 15.2305 95.025 15.7266 94.8453 16.1641C94.6656 16.5938 94.4195 16.9727 94.107 17.3008C93.8023 17.6289 93.4469 17.9062 93.0406 18.1328C92.6344 18.3594 92.2008 18.5469 91.7398 18.6953C91.2789 18.8359 90.8023 18.9375 90.3102 19C89.8258 19.0625 89.3531 19.0938 88.8922 19.0938C88.3063 19.0938 87.7281 19.0547 87.1578 18.9766C86.5875 18.8906 86.025 18.7578 85.4703 18.5781C85.5563 19.0938 85.693 19.5859 85.8805 20.0547C86.068 20.5156 86.318 20.9219 86.6305 21.2734C86.943 21.6172 87.3258 21.8906 87.7789 22.0938C88.2398 22.2969 88.7828 22.3984 89.4078 22.3984C89.8219 22.3984 90.2164 22.3359 90.5914 22.2109C90.9664 22.0859 91.3102 21.9102 91.6227 21.6836C91.9352 21.457 92.2086 21.1875 92.443 20.875C92.6852 20.5625 92.8805 20.2148 93.0289 19.832L94.7398 20.4648C94.482 21.082 94.1266 21.6172 93.6734 22.0703C93.2281 22.5156 92.7203 22.8867 92.15 23.1836C91.5875 23.4727 90.9859 23.6875 90.3453 23.8281C89.7125 23.9688 89.0836 24.0391 88.4586 24.0391C87.4273 24.0391 86.4742 23.8672 85.5992 23.5234C84.7242 23.1719 83.9703 22.6836 83.3375 22.0586C82.7047 21.4336 82.2086 20.6875 81.8492 19.8203C81.4898 18.9531 81.3102 18.0039 81.3102 16.9727C81.3102 15.9414 81.4898 14.9922 81.8492 14.125C82.2086 13.2578 82.7047 12.5117 83.3375 11.8867C83.9703 11.2617 84.7242 10.7773 85.5992 10.4336C86.4742 10.082 87.4273 9.90625 88.4586 9.90625C88.9586 9.90625 89.4703 9.94141 89.9938 10.0117C90.5172 10.082 91.025 10.1953 91.5172 10.3516C92.0094 10.5 92.4742 10.6953 92.9117 10.9375C93.3492 11.1797 93.7281 11.4805 94.0484 11.8398C94.3766 12.1914 94.6344 12.6016 94.8219 13.0703C95.0172 13.5391 95.1148 14.0742 95.1148 14.6758Z" fill="#0E2948"/>
<path d="M111.636 19.4453C111.636 20.0391 111.55 20.5664 111.378 21.0273C111.206 21.4883 110.972 21.8906 110.675 22.2344C110.378 22.5703 110.027 22.8555 109.62 23.0898C109.214 23.3164 108.777 23.5 108.308 23.6406C107.847 23.7812 107.363 23.8828 106.855 23.9453C106.347 24.0078 105.843 24.0391 105.343 24.0391C104.671 24.0391 104.077 23.9961 103.562 23.9102C103.046 23.8242 102.554 23.6875 102.085 23.5C101.616 23.3047 101.148 23.0547 100.679 22.75C100.218 22.4453 99.7023 22.0742 99.132 21.6367L101.441 19.75C101.652 20.1484 101.929 20.5117 102.273 20.8398C102.624 21.1602 102.988 21.4375 103.363 21.6719C103.738 21.9062 104.101 22.0859 104.452 22.2109C104.804 22.3359 105.089 22.3984 105.308 22.3984C105.488 22.3984 105.691 22.3945 105.917 22.3867C106.144 22.3711 106.374 22.3477 106.609 22.3164C106.843 22.2773 107.073 22.2227 107.3 22.1523C107.527 22.082 107.726 21.9883 107.898 21.8711C108.077 21.7461 108.218 21.5938 108.32 21.4141C108.429 21.2266 108.484 21.0039 108.484 20.7461C108.484 20.4805 108.413 20.25 108.273 20.0547C108.14 19.8516 107.964 19.6758 107.745 19.5273C107.527 19.3789 107.277 19.2539 106.995 19.1523C106.714 19.0508 106.429 18.9609 106.14 18.8828C105.859 18.8047 105.585 18.7383 105.32 18.6836C105.054 18.6211 104.823 18.5625 104.628 18.5078C104.269 18.4062 103.89 18.3047 103.491 18.2031C103.093 18.0938 102.698 17.9727 102.308 17.8398C101.917 17.6992 101.542 17.5352 101.183 17.3477C100.831 17.1602 100.519 16.9375 100.245 16.6797C99.9797 16.4141 99.7648 16.1055 99.6008 15.7539C99.4445 15.3945 99.3664 14.9766 99.3664 14.5C99.3664 13.625 99.5383 12.8945 99.882 12.3086C100.234 11.7148 100.695 11.2422 101.265 10.8906C101.835 10.5312 102.484 10.2773 103.21 10.1289C103.937 9.98047 104.675 9.90625 105.425 9.90625C105.941 9.90625 106.484 9.96094 107.054 10.0703C107.624 10.1719 108.179 10.3281 108.718 10.5391C109.257 10.7422 109.761 10.9922 110.23 11.2891C110.698 11.5859 111.089 11.9258 111.402 12.3086L109.093 14.207C108.921 13.7383 108.695 13.3359 108.413 13C108.14 12.6641 107.839 12.3906 107.511 12.1797C107.191 11.9609 106.859 11.8008 106.515 11.6992C106.179 11.5977 105.866 11.5469 105.577 11.5469C105.296 11.5469 104.98 11.5586 104.628 11.582C104.277 11.6055 103.945 11.6719 103.632 11.7812C103.327 11.8906 103.066 12.0586 102.847 12.2852C102.636 12.5039 102.53 12.8086 102.53 13.1992C102.53 13.4805 102.593 13.7227 102.718 13.9258C102.851 14.1211 103.023 14.293 103.234 14.4414C103.445 14.582 103.683 14.7031 103.948 14.8047C104.222 14.8984 104.499 14.9844 104.78 15.0625C105.062 15.1328 105.335 15.1953 105.601 15.25C105.866 15.3047 106.105 15.3633 106.316 15.4258C106.675 15.5273 107.054 15.6328 107.452 15.7422C107.859 15.8438 108.257 15.9648 108.648 16.1055C109.038 16.2383 109.413 16.3984 109.773 16.5859C110.14 16.7656 110.46 16.9883 110.734 17.2539C111.007 17.5195 111.226 17.832 111.39 18.1914C111.554 18.543 111.636 18.9609 111.636 19.4453Z" fill="#0E2948"/>
<path d="M5 27.2695H114" stroke="#2CD651"/>
<path d="M14.5674 33.6543C14.5674 33.8594 14.54 34.0547 14.4854 34.2402C14.4307 34.4238 14.3535 34.5938 14.2539 34.75C14.1562 34.9062 14.0391 35.0479 13.9023 35.1748C13.7656 35.2998 13.6143 35.4062 13.4482 35.4941C13.2842 35.582 13.1074 35.6504 12.918 35.6992C12.7305 35.7461 12.5371 35.7695 12.3379 35.7695H10.4775V31.5508H12.3379C12.5371 31.5508 12.7305 31.5742 12.918 31.6211C13.1055 31.668 13.2812 31.7354 13.4453 31.8232C13.6113 31.9092 13.7627 32.0146 13.8994 32.1396C14.0381 32.2646 14.1562 32.4053 14.2539 32.5615C14.3535 32.7158 14.4307 32.8857 14.4854 33.0713C14.54 33.2549 14.5674 33.4492 14.5674 33.6543ZM13.3867 33.6543C13.3867 33.4258 13.3584 33.209 13.3018 33.0039C13.2471 32.7969 13.1611 32.6152 13.0439 32.459C12.9268 32.3027 12.7773 32.1787 12.5957 32.0869C12.416 31.9951 12.2002 31.9492 11.9482 31.9492H11.6406V35.3594H11.9482C12.1963 35.3594 12.4102 35.3135 12.5898 35.2217C12.7715 35.1279 12.9209 35.0029 13.0381 34.8467C13.1572 34.6885 13.2451 34.5068 13.3018 34.3018C13.3584 34.0967 13.3867 33.8809 13.3867 33.6543ZM23.5157 35.7695H22.5255V35.3652C22.4083 35.5254 22.2667 35.6445 22.1007 35.7227C21.9366 35.7988 21.7559 35.8369 21.5587 35.8369C21.3009 35.8369 21.0704 35.791 20.8673 35.6992C20.6641 35.6074 20.4923 35.4824 20.3516 35.3242C20.211 35.1641 20.1036 34.9766 20.0294 34.7617C19.9552 34.5469 19.918 34.3164 19.918 34.0703C19.918 33.8242 19.9552 33.5938 20.0294 33.3789C20.1036 33.1641 20.211 32.9775 20.3516 32.8193C20.4923 32.6592 20.6641 32.5332 20.8673 32.4414C21.0704 32.3496 21.3009 32.3037 21.5587 32.3037C21.6895 32.3037 21.8136 32.3232 21.9307 32.3623C22.0499 32.4014 22.1583 32.457 22.2559 32.5293C22.3555 32.5996 22.4425 32.6855 22.5167 32.7871C22.5929 32.8867 22.6524 32.998 22.6954 33.1211L23.1348 32.3857H23.5157V35.7695ZM22.5196 34.0703C22.5196 33.9824 22.5147 33.8896 22.505 33.792C22.4971 33.6943 22.4825 33.5977 22.461 33.502C22.4395 33.4062 22.4093 33.3154 22.3702 33.2295C22.3331 33.1416 22.2843 33.0645 22.2237 32.998C22.1651 32.9297 22.0938 32.876 22.0098 32.8369C21.9259 32.7979 21.8282 32.7783 21.7169 32.7783C21.6055 32.7783 21.5089 32.7988 21.4268 32.8398C21.3448 32.8789 21.2745 32.9326 21.2159 33.001C21.1573 33.0674 21.1085 33.1445 21.0694 33.2324C21.0323 33.3203 21.003 33.4121 20.9815 33.5078C20.96 33.6035 20.9444 33.7002 20.9346 33.7979C20.9268 33.8936 20.9229 33.9844 20.9229 34.0703C20.9229 34.1562 20.9268 34.248 20.9346 34.3457C20.9444 34.4434 20.96 34.54 20.9815 34.6357C21.003 34.7314 21.0323 34.8232 21.0694 34.9111C21.1085 34.999 21.1573 35.0771 21.2159 35.1455C21.2745 35.2119 21.3448 35.2656 21.4268 35.3066C21.5089 35.3457 21.6055 35.3652 21.7169 35.3652C21.8184 35.3652 21.9083 35.3447 21.9864 35.3037C22.0665 35.2607 22.1358 35.2041 22.1944 35.1338C22.255 35.0635 22.3057 34.9834 22.3468 34.8936C22.3878 34.8037 22.421 34.7109 22.4464 34.6152C22.4718 34.5195 22.4903 34.4248 22.502 34.3311C22.5138 34.2354 22.5196 34.1484 22.5196 34.0703ZM30.3048 31.5684C30.3048 31.6426 30.2902 31.7129 30.2609 31.7793C30.2336 31.8457 30.1955 31.9033 30.1466 31.9521C30.0978 32.001 30.0402 32.04 29.9738 32.0693C29.9074 32.0967 29.8371 32.1104 29.7629 32.1104C29.6886 32.1104 29.6183 32.0967 29.5519 32.0693C29.4875 32.04 29.4308 32.001 29.382 31.9521C29.3332 31.9033 29.2941 31.8457 29.2648 31.7793C29.2375 31.7129 29.2238 31.6426 29.2238 31.5684C29.2238 31.4941 29.2375 31.4248 29.2648 31.3604C29.2941 31.2939 29.3332 31.2363 29.382 31.1875C29.4308 31.1387 29.4875 31.1006 29.5519 31.0732C29.6183 31.0439 29.6886 31.0293 29.7629 31.0293C29.8371 31.0293 29.9074 31.0439 29.9738 31.0732C30.0402 31.1006 30.0978 31.1387 30.1466 31.1875C30.1955 31.2363 30.2336 31.2939 30.2609 31.3604C30.2902 31.4248 30.3048 31.4941 30.3048 31.5684ZM30.2609 35.7695H29.2677V32.3887H30.2609V35.7695ZM38.8899 32.6846L38.3332 33.6074C38.3098 33.5293 38.2795 33.4414 38.2424 33.3438C38.2053 33.2461 38.1594 33.1553 38.1047 33.0713C38.05 32.9854 37.9846 32.9141 37.9084 32.8574C37.8323 32.7988 37.7444 32.7695 37.6448 32.7695C37.553 32.7695 37.4729 32.793 37.4045 32.8398C37.3381 32.8867 37.2815 32.9482 37.2346 33.0244C37.1877 33.0986 37.1487 33.1836 37.1174 33.2793C37.0881 33.373 37.0647 33.4688 37.0471 33.5664C37.0315 33.6621 37.0207 33.7549 37.0149 33.8447C37.009 33.9326 37.0061 34.0088 37.0061 34.0732V35.7695H36.0129V32.3857H36.3938L36.7952 33.1738C36.8498 33.0469 36.9123 32.9307 36.9827 32.8252C37.053 32.7178 37.134 32.626 37.2258 32.5498C37.3176 32.4717 37.4211 32.4111 37.5364 32.3682C37.6536 32.3252 37.7854 32.3037 37.9319 32.3037C38.008 32.3037 38.093 32.3105 38.1868 32.3242C38.2805 32.3359 38.3723 32.3574 38.4621 32.3887C38.552 32.418 38.635 32.457 38.7112 32.5059C38.7873 32.5547 38.8469 32.6143 38.8899 32.6846ZM47.2552 32.3857L46.0247 35.3623C45.8841 35.7021 45.7269 36.0381 45.553 36.3701C45.3812 36.7041 45.1946 37.0244 44.9935 37.3311L44.6068 37.0967C44.6556 37.0088 44.7132 36.9072 44.7796 36.792C44.846 36.6768 44.9114 36.5576 44.9759 36.4346C45.0404 36.3115 45.0999 36.1895 45.1546 36.0684C45.2093 35.9492 45.2513 35.8398 45.2806 35.7402L43.8011 32.3857H44.7913L45.7962 34.6738L46.5696 32.3857H47.2552ZM62.7846 34.0703C62.7846 34.2461 62.7612 34.4111 62.7143 34.5654C62.6675 34.7197 62.602 34.8623 62.518 34.9932C62.436 35.124 62.3364 35.2422 62.2192 35.3477C62.102 35.4512 61.9731 35.5391 61.8325 35.6113C61.6938 35.6836 61.5444 35.7393 61.3843 35.7783C61.2261 35.8174 61.063 35.8369 60.895 35.8369C60.727 35.8369 60.5639 35.8174 60.4057 35.7783C60.2475 35.7393 60.0981 35.6836 59.9575 35.6113C59.8188 35.5391 59.6909 35.4512 59.5737 35.3477C59.4565 35.2422 59.3559 35.124 59.272 34.9932C59.1899 34.8623 59.1255 34.7197 59.0786 34.5654C59.0317 34.4092 59.0083 34.2441 59.0083 34.0703C59.0083 33.8965 59.0317 33.7324 59.0786 33.5781C59.1255 33.4219 59.1899 33.2783 59.272 33.1475C59.3559 33.0166 59.4565 32.8994 59.5737 32.7959C59.6909 32.6904 59.8188 32.6016 59.9575 32.5293C60.0981 32.457 60.2475 32.4014 60.4057 32.3623C60.5639 32.3232 60.727 32.3037 60.895 32.3037C61.063 32.3037 61.2261 32.3232 61.3843 32.3623C61.5444 32.4014 61.6938 32.457 61.8325 32.5293C61.9731 32.6016 62.102 32.6904 62.2192 32.7959C62.3364 32.8994 62.436 33.0166 62.518 33.1475C62.602 33.2783 62.6675 33.4219 62.7143 33.5781C62.7612 33.7324 62.7846 33.8965 62.7846 34.0703ZM61.7768 34.0703C61.7768 33.9766 61.771 33.8779 61.7593 33.7744C61.7495 33.6689 61.7319 33.5664 61.7065 33.4668C61.6811 33.3652 61.646 33.2686 61.6011 33.1768C61.5581 33.083 61.5044 33.002 61.4399 32.9336C61.3755 32.8633 61.2983 32.8076 61.2085 32.7666C61.1186 32.7236 61.0141 32.7021 60.895 32.7021C60.7817 32.7021 60.6811 32.7236 60.5932 32.7666C60.5054 32.8096 60.4282 32.8672 60.3618 32.9395C60.2973 33.0098 60.2427 33.0918 60.1977 33.1855C60.1548 33.2793 60.1196 33.377 60.0923 33.4785C60.0649 33.5781 60.0454 33.6797 60.0337 33.7832C60.022 33.8848 60.0161 33.9805 60.0161 34.0703C60.0161 34.1602 60.022 34.2568 60.0337 34.3604C60.0454 34.4619 60.0649 34.5635 60.0923 34.665C60.1196 34.7666 60.1548 34.8643 60.1977 34.958C60.2427 35.0498 60.2973 35.1318 60.3618 35.2041C60.4282 35.2744 60.5054 35.3311 60.5932 35.374C60.6811 35.417 60.7817 35.4385 60.895 35.4385C61.0122 35.4385 61.1157 35.418 61.2055 35.377C61.2954 35.334 61.3725 35.2773 61.437 35.207C61.5034 35.1367 61.5581 35.0557 61.6011 34.9639C61.644 34.8721 61.6782 34.7754 61.7036 34.6738C61.7309 34.5723 61.7495 34.4697 61.7593 34.3662C61.771 34.2627 61.7768 34.1641 61.7768 34.0703ZM71.4048 30.9941L70.8453 31.9199C70.8394 31.8457 70.8257 31.7607 70.8043 31.665C70.7828 31.5674 70.7466 31.4756 70.6959 31.3896C70.647 31.3037 70.5787 31.2314 70.4908 31.1729C70.4048 31.1123 70.2945 31.082 70.1597 31.082C70.0211 31.082 69.9097 31.1094 69.8257 31.1641C69.7418 31.2188 69.6773 31.3008 69.6324 31.4102C69.5875 31.5195 69.5572 31.6553 69.5416 31.8174C69.5259 31.9795 69.5181 32.168 69.5181 32.3828H70.5435V32.7754H69.5181V35.7695H68.525V32.7754H67.9097V32.3828H68.525C68.525 32.0723 68.5582 31.8057 68.6246 31.583C68.691 31.3604 68.7916 31.1777 68.9263 31.0352C69.0611 30.8906 69.23 30.7852 69.4332 30.7188C69.6382 30.6504 69.8775 30.6162 70.1509 30.6162C70.315 30.6162 70.4615 30.6279 70.5904 30.6514C70.7213 30.6729 70.8365 30.7021 70.9361 30.7393C71.0377 30.7744 71.1265 30.8145 71.2027 30.8594C71.2789 30.9043 71.3463 30.9492 71.4048 30.9941ZM85.8005 35.7695H82.7712V31.5508H83.9343V35.2334H85.8005V35.7695ZM92.2469 31.5684C92.2469 31.6426 92.2322 31.7129 92.2029 31.7793C92.1756 31.8457 92.1375 31.9033 92.0887 31.9521C92.0398 32.001 91.9822 32.04 91.9158 32.0693C91.8494 32.0967 91.7791 32.1104 91.7049 32.1104C91.6307 32.1104 91.5603 32.0967 91.4939 32.0693C91.4295 32.04 91.3728 32.001 91.324 31.9521C91.2752 31.9033 91.2361 31.8457 91.2068 31.7793C91.1795 31.7129 91.1658 31.6426 91.1658 31.5684C91.1658 31.4941 91.1795 31.4248 91.2068 31.3604C91.2361 31.2939 91.2752 31.2363 91.324 31.1875C91.3728 31.1387 91.4295 31.1006 91.4939 31.0732C91.5603 31.0439 91.6307 31.0293 91.7049 31.0293C91.7791 31.0293 91.8494 31.0439 91.9158 31.0732C91.9822 31.1006 92.0398 31.1387 92.0887 31.1875C92.1375 31.2363 92.1756 31.2939 92.2029 31.3604C92.2322 31.4248 92.2469 31.4941 92.2469 31.5684ZM92.2029 35.7695H91.2098V32.3887H92.2029V35.7695ZM101.116 30.9941L100.557 31.9199C100.551 31.8457 100.537 31.7607 100.516 31.665C100.494 31.5674 100.458 31.4756 100.407 31.3896C100.358 31.3037 100.29 31.2314 100.202 31.1729C100.116 31.1123 100.006 31.082 99.871 31.082C99.7323 31.082 99.621 31.1094 99.537 31.1641C99.453 31.2188 99.3886 31.3008 99.3436 31.4102C99.2987 31.5195 99.2684 31.6553 99.2528 31.8174C99.2372 31.9795 99.2294 32.168 99.2294 32.3828H100.255V32.7754H99.2294V35.7695H98.2362V32.7754H97.621V32.3828H98.2362C98.2362 32.0723 98.2694 31.8057 98.3358 31.583C98.4022 31.3604 98.5028 31.1777 98.6376 31.0352C98.7723 30.8906 98.9413 30.7852 99.1444 30.7188C99.3495 30.6504 99.5888 30.6162 99.8622 30.6162C100.026 30.6162 100.173 30.6279 100.302 30.6514C100.433 30.6729 100.548 30.7021 100.647 30.7393C100.749 30.7744 100.838 30.8145 100.914 30.8594C100.99 30.9043 101.058 30.9492 101.116 30.9941ZM106.332 34.1641C106.453 34.1914 106.574 34.2129 106.695 34.2285C106.816 34.2441 106.938 34.252 107.061 34.252C107.19 34.252 107.31 34.2402 107.419 34.2168C107.53 34.1914 107.626 34.1504 107.706 34.0938C107.788 34.0352 107.853 33.958 107.899 33.8623C107.946 33.7666 107.97 33.6475 107.97 33.5049C107.97 33.3896 107.954 33.2842 107.923 33.1885C107.892 33.0928 107.845 33.0107 107.782 32.9424C107.722 32.874 107.646 32.8213 107.557 32.7842C107.467 32.7451 107.362 32.7256 107.243 32.7256C107.132 32.7256 107.031 32.7461 106.941 32.7871C106.853 32.8281 106.775 32.8838 106.707 32.9541C106.641 33.0225 106.583 33.1025 106.534 33.1943C106.487 33.2861 106.448 33.3818 106.417 33.4814C106.386 33.5811 106.363 33.6816 106.35 33.7832C106.336 33.8848 106.329 33.9805 106.329 34.0703C106.329 34.0859 106.329 34.1016 106.329 34.1172C106.329 34.1328 106.33 34.1484 106.332 34.1641ZM108.772 33.4961C108.772 33.6348 108.75 33.7588 108.705 33.8682C108.66 33.9756 108.599 34.0703 108.52 34.1523C108.444 34.2344 108.355 34.3037 108.254 34.3604C108.152 34.417 108.044 34.4639 107.929 34.501C107.813 34.5361 107.694 34.5615 107.571 34.5771C107.45 34.5928 107.332 34.6006 107.217 34.6006C107.07 34.6006 106.926 34.5908 106.783 34.5713C106.641 34.5498 106.5 34.5166 106.361 34.4717C106.383 34.6006 106.417 34.7236 106.464 34.8408C106.511 34.9561 106.573 35.0576 106.651 35.1455C106.729 35.2314 106.825 35.2998 106.938 35.3506C107.054 35.4014 107.189 35.4268 107.346 35.4268C107.449 35.4268 107.548 35.4111 107.642 35.3799C107.735 35.3486 107.821 35.3047 107.899 35.248C107.978 35.1914 108.046 35.124 108.104 35.0459C108.165 34.9678 108.214 34.8809 108.251 34.7852L108.679 34.9434C108.614 35.0977 108.525 35.2314 108.412 35.3447C108.301 35.4561 108.174 35.5488 108.031 35.623C107.891 35.6953 107.74 35.749 107.58 35.7842C107.422 35.8193 107.265 35.8369 107.108 35.8369C106.851 35.8369 106.612 35.7939 106.394 35.708C106.175 35.6201 105.986 35.498 105.828 35.3418C105.67 35.1855 105.546 34.999 105.456 34.7822C105.366 34.5654 105.321 34.3281 105.321 34.0703C105.321 33.8125 105.366 33.5752 105.456 33.3584C105.546 33.1416 105.67 32.9551 105.828 32.7988C105.986 32.6426 106.175 32.5215 106.394 32.4355C106.612 32.3477 106.851 32.3037 107.108 32.3037C107.233 32.3037 107.361 32.3125 107.492 32.3301C107.623 32.3477 107.75 32.376 107.873 32.415C107.996 32.4521 108.112 32.501 108.222 32.5615C108.331 32.6221 108.426 32.6973 108.506 32.7871C108.588 32.875 108.652 32.9775 108.699 33.0947C108.748 33.2119 108.772 33.3457 108.772 33.4961Z" fill="#0E2948"/>
</svg>
